<?xml version="1.0" encoding="UTF-8" standalone="no"?>
<!DOCTYPE svg PUBLIC "-//W3C//DTD SVG 1.1//EN"
 "http://www.w3.org/Graphics/SVG/1.1/DTD/svg11.dtd">
<!-- Generated by graphviz version 3.0.0 (20220226.1711)
 -->
<!-- Pages: 1 -->
<svg width="200pt" height="121pt"
 viewBox="0.00 0.00 200.38 121.40" xmlns="http://www.w3.org/2000/svg" xmlns:xlink="http://www.w3.org/1999/xlink">
<g id="graph0" class="graph" transform="scale(1 1) rotate(0) translate(4 117.4)">
<polygon fill="white" stroke="transparent" points="-4,4 -4,-117.4 196.38,-117.4 196.38,4 -4,4"/>
<!-- x -->
<g id="node1" class="node">
<title>x</title>
<polygon fill="lightgray" stroke="black" points="20,-113.4 0,-113.4 0,-95.4 20,-95.4 20,-113.4"/>
<text text-anchor="middle" x="10" y="-102.2" font-family="Times New Roman,serif" font-size="9.00">x</text>
</g>
<!-- control -->
<g id="node5" class="node">
<title>control</title>
<ellipse fill="lightblue" stroke="black" cx="71" cy="-29.7" rx="29.9" ry="29.9"/>
<text text-anchor="middle" x="71" y="-27.5" font-family="Times New Roman,serif" font-size="9.00">control</text>
</g>
<!-- x&#45;&gt;control -->
<g id="edge6" class="edge">
<title>x&#45;&gt;control</title>
<path fill="none" stroke="green" stroke-width="0.16" d="M16.76,-95.34C23.73,-87.03 35.04,-73.56 45.52,-61.06"/>
<polygon fill="green" stroke="green" stroke-width="0.16" points="48.5,-62.96 52.25,-53.05 43.14,-58.46 48.5,-62.96"/>
</g>
<!-- dx -->
<g id="node2" class="node">
<title>dx</title>
<polygon fill="lightgray" stroke="black" points="63.5,-113.4 38.5,-113.4 38.5,-95.4 63.5,-95.4 63.5,-113.4"/>
<text text-anchor="middle" x="51" y="-102.2" font-family="Times New Roman,serif" font-size="9.00">dx</text>
</g>
<!-- dx&#45;&gt;control -->
<g id="edge3" class="edge">
<title>dx&#45;&gt;control</title>
<path fill="none" stroke="green" stroke-width="0.2" d="M53.22,-95.34C55.07,-88.62 57.85,-78.51 60.66,-68.28"/>
<polygon fill="green" stroke="green" stroke-width="0.2" points="64.06,-69.1 63.34,-58.53 57.32,-67.25 64.06,-69.1"/>
</g>
<!-- theta -->
<g id="node3" class="node">
<title>theta</title>
<polygon fill="lightgray" stroke="black" points="173.5,-113.4 138.5,-113.4 138.5,-95.4 173.5,-95.4 173.5,-113.4"/>
<text text-anchor="middle" x="156" y="-102.2" font-family="Times New Roman,serif" font-size="9.00">theta</text>
</g>
<!-- theta&#45;&gt;control -->
<g id="edge2" class="edge">
<title>theta&#45;&gt;control</title>
<path fill="none" stroke="green" stroke-width="0.38" d="M146.58,-95.34C135.58,-85.94 116.86,-69.92 100.8,-56.18"/>
<polygon fill="green" stroke="green" stroke-width="0.38" points="103.05,-53.5 93.17,-49.66 98.5,-58.82 103.05,-53.5"/>
</g>
<!-- 55 -->
<g id="node6" class="node">
<title>55</title>
<ellipse fill="white" stroke="black" cx="156" cy="-29.7" rx="18.27" ry="18.27"/>
<text text-anchor="middle" x="156" y="-27.5" font-family="Times New Roman,serif" font-size="9.00">55</text>
</g>
<!-- theta&#45;&gt;55 -->
<g id="edge5" class="edge">
<title>theta&#45;&gt;55</title>
<path fill="none" stroke="green" stroke-width="0.13" d="M156,-95.34C156,-86.41 156,-71.53 156,-58.29"/>
<polygon fill="green" stroke="green" stroke-width="0.13" points="159.5,-58.18 156,-48.18 152.5,-58.18 159.5,-58.18"/>
</g>
<!-- dtheta -->
<g id="node4" class="node">
<title>dtheta</title>
<polygon fill="lightgray" stroke="black" points="120.5,-113.4 81.5,-113.4 81.5,-95.4 120.5,-95.4 120.5,-113.4"/>
<text text-anchor="middle" x="101" y="-102.2" font-family="Times New Roman,serif" font-size="9.00">dtheta</text>
</g>
<!-- dtheta&#45;&gt;control -->
<g id="edge4" class="edge">
<title>dtheta&#45;&gt;control</title>
<path fill="none" stroke="green" stroke-width="0.28" d="M97.67,-95.34C94.77,-88.31 90.34,-77.57 85.92,-66.86"/>
<polygon fill="green" stroke="green" stroke-width="0.28" points="89.13,-65.46 82.08,-57.55 82.66,-68.13 89.13,-65.46"/>
</g>
<!-- 55&#45;&gt;55 -->
<g id="edge1" class="edge">
<title>55&#45;&gt;55</title>
<path fill="none" stroke="green" stroke-width="0.59" d="M170.19,-41.78C181.18,-46.3 192.38,-42.27 192.38,-29.7 192.38,-21.05 187.09,-16.45 180.21,-15.88"/>
<polygon fill="green" stroke="green" stroke-width="0.59" points="179.45,-12.46 170.19,-17.62 180.64,-19.36 179.45,-12.46"/>
</g>
</g>
</svg>
