<?xml version="1.0" encoding="UTF-8" standalone="no"?>
<!DOCTYPE svg PUBLIC "-//W3C//DTD SVG 1.1//EN"
 "http://www.w3.org/Graphics/SVG/1.1/DTD/svg11.dtd">
<!-- Generated by graphviz version 3.0.0 (20220226.1711)
 -->
<!-- Pages: 1 -->
<svg width="151pt" height="200pt"
 viewBox="0.00 0.00 150.71 199.82" xmlns="http://www.w3.org/2000/svg" xmlns:xlink="http://www.w3.org/1999/xlink">
<g id="graph0" class="graph" transform="scale(1 1) rotate(0) translate(4 195.82)">
<polygon fill="white" stroke="transparent" points="-4,4 -4,-195.82 146.71,-195.82 146.71,4 -4,4"/>
<!-- x -->
<g id="node1" class="node">
<title>x</title>
<polygon fill="lightgray" stroke="black" points="85.5,-191.82 65.5,-191.82 65.5,-173.82 85.5,-173.82 85.5,-191.82"/>
<text text-anchor="middle" x="75.5" y="-180.62" font-family="Times New Roman,serif" font-size="9.00">x</text>
</g>
<!-- dx -->
<g id="node2" class="node">
<title>dx</title>
<polygon fill="lightgray" stroke="black" points="25,-125.61 0,-125.61 0,-107.61 25,-107.61 25,-125.61"/>
<text text-anchor="middle" x="12.5" y="-114.41" font-family="Times New Roman,serif" font-size="9.00">dx</text>
</g>
<!-- control -->
<g id="node5" class="node">
<title>control</title>
<ellipse fill="lightblue" stroke="black" cx="62.5" cy="-29.7" rx="29.9" ry="29.9"/>
<text text-anchor="middle" x="62.5" y="-27.5" font-family="Times New Roman,serif" font-size="9.00">control</text>
</g>
<!-- dx&#45;&gt;control -->
<g id="edge2" class="edge">
<title>dx&#45;&gt;control</title>
<path fill="none" stroke="green" stroke-width="0.21" d="M17.29,-107.47C23.1,-97.61 33.24,-80.39 42.45,-64.75"/>
<polygon fill="green" stroke="green" stroke-width="0.21" points="45.66,-66.19 47.72,-55.8 39.63,-62.64 45.66,-66.19"/>
</g>
<!-- theta -->
<g id="node3" class="node">
<title>theta</title>
<polygon fill="lightgray" stroke="black" points="139,-191.82 104,-191.82 104,-173.82 139,-173.82 139,-191.82"/>
<text text-anchor="middle" x="121.5" y="-180.62" font-family="Times New Roman,serif" font-size="9.00">theta</text>
</g>
<!-- 470 -->
<g id="node6" class="node">
<title>470</title>
<ellipse fill="white" stroke="black" cx="121.5" cy="-116.61" rx="21.43" ry="21.43"/>
<text text-anchor="middle" x="121.5" y="-114.41" font-family="Times New Roman,serif" font-size="9.00">470</text>
</g>
<!-- theta&#45;&gt;470 -->
<g id="edge3" class="edge">
<title>theta&#45;&gt;470</title>
<path fill="none" stroke="green" stroke-width="0.22" d="M121.5,-173.69C121.5,-167.15 121.5,-157.52 121.5,-148.08"/>
<polygon fill="green" stroke="green" stroke-width="0.22" points="125,-148.07 121.5,-138.07 118,-148.07 125,-148.07"/>
</g>
<!-- dtheta -->
<g id="node4" class="node">
<title>dtheta</title>
<polygon fill="lightgray" stroke="black" points="82,-125.61 43,-125.61 43,-107.61 82,-107.61 82,-125.61"/>
<text text-anchor="middle" x="62.5" y="-114.41" font-family="Times New Roman,serif" font-size="9.00">dtheta</text>
</g>
<!-- dtheta&#45;&gt;control -->
<g id="edge1" class="edge">
<title>dtheta&#45;&gt;control</title>
<path fill="none" stroke="green" stroke-width="0.46" d="M62.5,-107.47C62.5,-98.65 62.5,-83.93 62.5,-69.73"/>
<polygon fill="green" stroke="green" stroke-width="0.46" points="66,-69.57 62.5,-59.57 59,-69.57 66,-69.57"/>
</g>
<!-- 470&#45;&gt;control -->
<g id="edge4" class="edge">
<title>470&#45;&gt;control</title>
<path fill="none" stroke="green" stroke-width="0.38" d="M109.84,-98.83C102.69,-88.55 93.31,-75.03 84.78,-62.76"/>
<polygon fill="green" stroke="green" stroke-width="0.38" points="87.63,-60.73 79.05,-54.51 81.88,-64.72 87.63,-60.73"/>
</g>
</g>
</svg>
